#!OML:ASF I:\Actors\actors\Patient Classification 2\Patient 1\Session 1\actor1.ASF
:FULLY-SPECIFIED
:DEGREES
448
root -0.972513 18.7894 5.36684 2.93967 5.34093 -3.20379
lowerback 12.2187 0.11153 0.85204
upperback -0.2079 0.370943 1.36834
thorax -7.09139 0.176978 0.897458
lowerneck -21.4757 -4.36696 -2.65683
upperneck 15.0824 -6.26405 5.56157
head 8.48534 -2.51465 1.46914
rclavicle 1.09182e-014 8.49494e-016
rhumerus 14.3356 33.704 -53.0055
rradius 72.4984
rwrist -24.7077
rhand 4.17122 -50.8009
rfingers 7.12502
rthumb 29.5791 -78.4635
lclavicle 1.09182e-014 8.49494e-016
lhumerus 11.5057 -35.2517 83.4805
lradius 76.105
lwrist 52.8426
lhand -24.6515 -1.58438
lfingers 7.12502
lthumb 1.84814 28.3874
rfemur 4.79142 -6.24431 18.1548
rtibia -1.59028e-015
rfoot -15.3996 -9.67424
rtoes -0.868895
lfemur -10.3189 -6.5795 -9.1766
ltibia 22.3397
lfoot -18.2438 10.478
ltoes -56.7788
449
root -0.972659 18.7888 5.36131 2.88501 5.42357 -3.19462
lowerback 12.1122 0.139008 0.81669
upperback -0.158498 0.399722 1.36823
thorax -6.97897 0.192382 0.911812
lowerneck -21.2472 -4.44964 -2.86384
upperneck 14.9968 -6.34667 5.72502
head 8.43383 -2.55448 1.54957
rclavicle -9.09551e-016 -1.24343e-014
rhumerus 14.1812 34.6435 -51.3573
rradius 73.0045
rwrist -24.5961
rhand 4.85506 -50.8027
rfingers 7.12502
rthumb 30.2317 -78.3478
lclavicle -9.09551e-016 -1.24343e-014
lhumerus 11.6522 -35.4714 83.3119
lradius 76.2991
lwrist 52.8771
lhand -24.7341 -1.6421
lfingers 7.12502
lthumb 1.76838 28.3303
rfemur 4.84615 -6.34389 18.1346
rtibia -1.59028e-015
rfoot -15.3702 -9.65601
rtoes -1.03516
lfemur -10.3077 -6.63787 -9.18957
ltibia 22.3593
lfoot -18.2476 10.441
ltoes -56.7988
450
root -0.972231 18.7883 5.3566 2.83984 5.53451 -3.23832
lowerback 11.8889 0.143422 0.755106
upperback -0.0216356 0.396076 1.44292
thorax -6.70815 0.194223 1.02534
lowerneck -21.2276 -4.53451 -3.11157
upperneck 14.9741 -6.41591 5.86783
head 8.43951 -2.58727 1.62826
rclavicle 5.37185e-015 2.02512e-015
rhumerus 14.1349 35.565 -49.5914
rradius 73.7261
rwrist -24.5156
rhand 5.66299 -50.6871
rfingers 7.12502
rthumb 31.0021 -78.0882
lclavicle 5.37185e-015 2.02512e-015
lhumerus 12.0206 -35.5712 83.1165
lradius 76.3722
lwrist 52.7708
lhand -24.7803 -1.90879
lfingers 7.12502
lthumb 1.7238 28.064
rfemur 4.88722 -6.46993 18.1738
rtibia 6.36111e-015
rfoot -15.3355 -9.64085
rtoes -1.17907
lfemur -10.324 -6.79406 -9.14575
ltibia 22.3977
lfoot -18.2578 10.5129
ltoes -56.8686
451
root -0.969537 18.7873 5.35345 2.78077 5.67775 -3.31115
lowerback 11.7454 0.122729 0.775724
upperback 0.0807181 0.371782 1.51014
thorax -6.51865 0.182866 1.08814
lowerneck -21.3345 -4.59643 -3.25461
upperneck 15.065 -6.4662 5.89635
head 8.4967 -2.61243 1.65209
rclavicle -4.98825e-015 6.23687e-015
rhumerus 13.8596 36.4985 -47.9546
rradius 74.8529
rwrist -24.7794
rhand 6.29627 -50.6263
rfingers 7.12502
rthumb 31.6056 -77.9106
lclavicle -4.98825e-015 6.23687e-015
lhumerus 12.3005 -35.7067 82.9178
lradius 76.5076
lwrist 52.6537
lhand -24.92 -2.42979
lfingers 7.12502
lthumb 1.58885 27.544
rfemur 4.947 -6.62601 18.2346
rtibia -1.59028e-015
rfoot -15.3083 -9.60898
rtoes -1.10657
lfemur -10.3363 -7.00353 -9.07412
ltibia 22.4387
lfoot -18.2999 10.5693
ltoes -56.8764
452
root -0.96748 18.7862 5.35239 2.73655 5.84795 -3.36234
lowerback 12.0153 0.109878 1.07011
upperback -0.141902 0.395152 1.37276
thorax -6.90488 0.181589 0.774161
lowerneck -21.2607 -4.67328 -3.2931
upperneck 15.3678 -6.60322 6.00359
head 8.59973 -2.66329 1.67578
rclavicle 5.95422e-015 2.64259e-014
rhumerus 12.5969 37.4883 -47.1046
rradius 76.4126
rwrist -25.2314
rhand 6.90598 -50.6219
rfingers 7.12502
rthumb 32.1862 -77.7903
lclavicle 5.95422e-015 2.64259e-014
lhumerus 11.9686 -36.2024 82.8423
lradius 76.7749
lwrist 52.4627
lhand -24.9718 -2.77855
lfingers 7.12502
lthumb 1.53881 27.1956
rfemur 5.00827 -6.81056 18.2727
rtibia -1.59028e-015
rfoot -15.3123 -9.56218
rtoes -0.869597
lfemur -10.3595 -7.1531 -9.01493
ltibia 22.4731
lfoot -18.3563 10.4745
ltoes -56.725
453
root -0.96671 18.7843 5.35194 2.65803 6.00758 -3.35331
lowerback 12.1227 0.0877049 1.1388
upperback -0.219986 0.374301 1.30611
thorax -7.04775 0.16734 0.669077
lowerneck -21.1072 -4.68873 -3.30708
upperneck 15.4407 -6.63957 6.05585
head 8.60272 -2.67738 1.69278
rclavicle -1.99654e-014 -2.03754e-014
rhumerus 12.8897 39.151 -44.5999
rradius 78.0759
rwrist -26.9255
rhand 7.06075 -50.6314
rfingers 7.12502
rthumb 32.3335 -77.7699
lclavicle -1.99654e-014 -2.03754e-014
lhumerus 11.8252 -36.5029 82.7256
lradius 77.0168
lwrist 52.1498
lhand -24.9466 -2.9328
lfingers 7.12502
lthumb 1.56313 27.0412
rfemur 5.12339 -6.98611 18.2412
rtibia 1.11319e-014
rfoot -15.3397 -9.49953
rtoes -0.678521
lfemur -10.3169 -7.28181 -9.02911
ltibia 22.4929
lfoot -18.406 10.3668
ltoes -56.5361
454
root -0.965404 18.7815 5.35053 2.51407 6.11761 -3.33862
lowerback 12.2182 0.0810998 1.14259
upperback -0.197364 0.364996 1.26898
thorax -7.07733 0.161916 0.629324
lowerneck -20.9645 -4.69727 -3.30107
upperneck 15.3941 -6.65108 6.04424
head 8.5622 -2.68762 1.68851
rclavicle -4.14342e-015 -4.09993e-015
rhumerus 12.3157 40.0538 -43.3637
rradius 79.949
rwrist -27.3698
rhand 7.53108 -50.6923
rfingers 7.12502
rthumb 32.7811 -77.7384
lclavicle -4.14342e-015 -4.09993e-015
lhumerus 11.8321 -36.7469 82.5508
lradius 77.2606
lwrist 51.8294
lhand -24.9422 -3.13247
lfingers 7.12502
lthumb 1.56742 26.8415
rfemur 5.29766 -7.11036 18.1961
rtibia -1.27222e-014
rfoot -15.3692 -9.46064
rtoes -0.725774
lfemur -10.1796 -7.4217 -9.0691
ltibia 22.4896
lfoot -18.4649 10.3345
ltoes -56.5068
455
root -0.965001 18.7799 5.35152 2.45499 6.23318 -3.36572
lowerback 12.1975 0.0601907 1.18395
upperback -0.178695 0.339411 1.22786
thorax -7.0451 0.147317 0.567041
lowerneck -20.8733 -4.68887 -3.23294
upperneck 15.3605 -6.65306 6.01075
head 8.53155 -2.69062 1.66741
rclavicle -6.3052e-015 2.08227e-014
rhumerus 11.2516 40.5958 -42.8547
rradius 82.0668
rwrist -27.2031
rhand 8.16608 -50.7806
rfingers 7.12502
rthumb 33.3849 -77.6988
lclavicle -6.3052e-015 2.08227e-014
lhumerus 11.8398 -37.0023 82.2915
lradius 77.5802
lwrist 51.5538
lhand -24.8588 -3.3285
lfingers 7.12502
lthumb 1.64795 26.6449
rfemur 5.38352 -7.24258 18.2188
rtibia 4.77083e-015
rfoot -15.3814 -9.46149
rtoes -0.980374
lfemur -10.13 -7.56163 -9.04257
ltibia 22.4653
lfoot -18.4898 10.3187
ltoes -56.5808
456
root -0.965383 18.7799 5.35466 2.51297 6.41203 -3.39394
lowerback 12.0299 0.0148541 1.17744
upperback -0.185596 0.27433 1.22065
thorax -6.95754 0.115929 0.574634
lowerneck -20.8076 -4.68769 -3.18809
upperneck 15.3693 -6.66298 5.99149
head 8.52149 -2.69586 1.6533
rclavicle -2.52208e-015 2.57426e-014
rhumerus 10.1345 41.0347 -42.3216
rradius 84.5078
rwrist -27.4031
rhand 8.79872 -50.6476
rfingers 7.12502
rthumb 33.9861 -77.4344
lclavicle -2.52208e-015 2.57426e-014
lhumerus 11.7571 -37.2274 82.0996
lradius 77.9641
lwrist 51.3723
lhand -24.7977 -3.46112
lfingers 7.12502
lthumb 1.70691 26.5118
rfemur 5.3671 -7.44172 18.2581
rtibia -3.18055e-015
rfoot -15.3981 -9.42258
rtoes -0.840755
lfemur -10.2229 -7.65033 -8.98365
ltibia 22.4377
lfoot -18.464 10.2353
ltoes -56.648
457
root -0.963934 18.7797 5.35573 2.56067 6.57481 -3.39435
lowerback 11.938 -0.0269483 1.15136
upperback -0.211149 0.213446 1.21799
thorax -6.93277 0.087121 0.597305
lowerneck -20.6876 -4.70415 -3.2266
upperneck 15.3647 -6.68854 6.04946
head 8.50424 -2.70663 1.67738
rclavicle -9.38636e-015 -6.06293e-015
rhumerus 8.94365 41.3597 -41.8428
rradius 87.199
rwrist -28.0327
rhand 9.38619 -50.3069
rfingers 7.12502
rthumb 34.5439 -76.9682
lclavicle -9.38636e-015 -6.06293e-015
lhumerus 11.5684 -37.4626 82.0097
lradius 78.3556
lwrist 51.2404
lhand -24.9635 -3.45984
lfingers 7.12502
lthumb 1.54679 26.5143
rfemur 5.3522 -7.62443 18.2587
rtibia -2.38542e-014
rfoot -15.4233 -9.37031
rtoes -0.593579
lfemur -10.3092 -7.66573 -8.95919
ltibia 22.4138
lfoot -18.4308 10.0631
ltoes -56.6337
458
root -0.960852 18.7789 5.35592 2.56311 6.67544 -3.3919
lowerback 11.9612 -0.069755 1.18301
upperback -0.244864 0.159603 1.18381
thorax -6.9815 0.0589145 0.553132
lowerneck -20.5764 -4.69531 -3.31933
upperneck 15.3818 -6.68479 6.20448
head 8.50036 -2.69596 1.74687
rclavicle -1.31074e-014 7.7526e-015
rhumerus 7.82803 41.5754 -41.5334
rradius 89.8818
rwrist -28.6162
rhand 10.0664 -49.4858
rfingers 7.12502
rthumb 35.1893 -75.9974
lclavicle -1.31074e-014 7.7526e-015
lhumerus 11.3499 -37.735 81.8692
lradius 78.7416
lwrist 51.1356
lhand -25.2431 -3.43536
lfingers 7.12502
lthumb 1.27673 26.5406
rfemur 5.36767 -7.74336 18.2463
rtibia 2.70347e-014
rfoot -15.4366 -9.34888
rtoes -0.631356
lfemur -10.3367 -7.58251 -8.95636
ltibia 22.3894
lfoot -18.3661 9.83987
ltoes -56.6337
459
root -0.95796 18.7776 5.35846 2.54815 6.81683 -3.39015
lowerback 11.9963 -0.148371 1.22236
upperback -0.279415 0.0596729 1.15201
thorax -7.03799 0.0079573 0.515464
lowerneck -20.4698 -4.65616 -3.37052
upperneck 15.4228 -6.64232 6.30604
head 8.49973 -2.66977 1.79689
rclavicle -1.53934e-014 1.50082e-014
rhumerus 6.83454 41.3902 -41.4401
rradius 92.6793
rwrist -29.9893
rhand 11.1432 -49.7649
rfingers 7.12502
rthumb 36.2098 -76.0296
lclavicle -1.53934e-014 1.50082e-014
lhumerus 11.0775 -38.0282 81.6612
lradius 79.221
lwrist 51.1435
lhand -25.5838 -3.40537
lfingers 7.12502
lthumb 0.947716 26.5723
rfemur 5.42711 -7.90224 18.2263
rtibia -1.59028e-014
rfoot -15.4842 -9.29821
rtoes -0.372259
lfemur -10.3573 -7.35458 -8.95266
ltibia 22.3666
lfoot -18.2244 9.49783
ltoes -56.7586
460
root -0.955374 18.776 5.36224 2.52979 6.99142 -3.3894
lowerback 11.9785 -0.239941 1.20119
upperback -0.288853 -0.0640505 1.16892
thorax -7.0379 -0.0513122 0.567334
lowerneck -20.3339 -4.61409 -3.32529
upperneck 15.4286 -6.58717 6.23678
head 8.471 -2.65131 1.77588
rclavicle 6.1002e-015 1.98785e-016
rhumerus 6.05453 41.0195 -41.33
rradius 95.2321
rwrist -31.0511
rhand 11.8297 -49.5737
rfingers 7.12502
rthumb 36.8596 -75.6744
lclavicle 6.1002e-015 1.98785e-016
lhumerus 10.7637 -38.317 81.4705
lradius 79.8054
lwrist 51.1622
lhand -26.0046 -3.34432
lfingers 7.12502
lthumb 0.541325 26.6347
rfemur 5.50488 -8.09429 18.2067
rtibia 7.95139e-015
rfoot -15.5421 -9.2218
rtoes 0.000622602
lfemur -10.3786 -7.24716 -8.94595
ltibia 22.3562
lfoot -18.099 9.24772
ltoes -56.8578
461
root -0.951773 18.775 5.36315 2.52345 7.04991 -3.39099
lowerback 11.9598 -0.27628 1.12621
upperback -0.282126 -0.118354 1.23952
thorax -7.01984 -0.0737203 0.693739
lowerneck -20.2137 -4.58009 -3.26976
upperneck 15.3961 -6.5147 6.03007
head 8.42519 -2.63898 1.70903
rclavicle 2.73329e-015 8.19987e-015
rhumerus 5.58206 40.4318 -41.1017
rradius 97.4268
rwrist -31.9493
rhand 12.2824 -49.1549
rfingers 7.12502
rthumb 37.2878 -75.1444
lclavicle 2.73329e-015 8.19987e-015
lhumerus 10.4461 -38.5706 81.393
lradius 80.4039
lwrist 51.056
lhand -26.2771 -3.371
lfingers 7.12502
lthumb 0.27815 26.6086
rfemur 5.52587 -8.1705 18.1942
rtibia 2.8625e-014
rfoot -15.5291 -9.19013
rtoes 0.0210005
lfemur -10.3795 -7.41874 -8.95331
ltibia 22.3591
lfoot -18.1166 9.32338
ltoes -56.8222
462
root -0.947185 18.7746 5.36169 2.51696 7.00026 -3.4094
lowerback 11.9614 -0.273955 1.0848
upperback -0.276314 -0.115491 1.31844
thorax -7.01441 -0.0693234 0.799933
lowerneck -20.0632 -4.55471 -3.24408
upperneck 15.3412 -6.4441 5.81965
head 8.36778 -2.63058 1.64609
rclavicle -4.53478e-016 9.24349e-015
rhumerus 5.33352 39.6171 -40.9661
rradius 99.1385
rwrist -32.7732
rhand 12.5805 -48.6676
rfingers 7.12502
rthumb 37.5695 -74.5826
lclavicle -4.53478e-016 9.24349e-015
lhumerus 10.1019 -38.8332 81.366
lradius 81.0185
lwrist 50.9477
lhand -26.4327 -3.45313
lfingers 7.12502
lthumb 0.127834 26.5266
rfemur 5.51842 -8.13815 18.2005
rtibia 6.36111e-015
rfoot -15.4928 -9.19024
rtoes -0.0610516
lfemur -10.3661 -7.37315 -8.9468
ltibia 22.3625
lfoot -18.1015 9.29106
ltoes -56.8024
